<svg height="1182" width="720" xmlns="http://www.w3.org/2000/svg">
<rect height="1182" fill="#555" width="720"></rect>
<text fill="#7f7" font-family="Courier New" font-size="12" xml:space="preserve">
<tspan x="10" y="26">6 megabytes</tspan>
<tspan x="10" y="42">└─┬ stringify@5.1.0 </tspan>
<tspan x="10" y="58">  ├─┬ browserify-transform-tools@1.7.0 </tspan>
<tspan x="10" y="74">  │ ├─┬ falafel@2.1.0 </tspan>
<tspan x="10" y="90">  │ │ ├── acorn@5.0.3 </tspan>
<tspan x="10" y="106">  │ │ ├── foreach@2.0.5 </tspan>
<tspan x="10" y="122">  │ │ ├── isarray@0.0.1 </tspan>
<tspan x="10" y="138">  │ │ └── object-keys@1.0.11 </tspan>
<tspan x="10" y="154">  │ └── through@2.3.8 </tspan>
<tspan x="10" y="170">  └─┬ html-minifier@1.1.1 </tspan>
<tspan x="10" y="186">    ├─┬ change-case@2.3.1 </tspan>
<tspan x="10" y="202">    │ ├── camel-case@1.2.2 </tspan>
<tspan x="10" y="218">    │ ├── constant-case@1.1.2 </tspan>
<tspan x="10" y="234">    │ ├── dot-case@1.1.2 </tspan>
<tspan x="10" y="250">    │ ├── is-lower-case@1.1.3 </tspan>
<tspan x="10" y="266">    │ ├── is-upper-case@1.1.2 </tspan>
<tspan x="10" y="282">    │ ├── lower-case@1.1.4 </tspan>
<tspan x="10" y="298">    │ ├── lower-case-first@1.0.2 </tspan>
<tspan x="10" y="314">    │ ├── param-case@1.1.2 </tspan>
<tspan x="10" y="330">    │ ├── pascal-case@1.1.2 </tspan>
<tspan x="10" y="346">    │ ├── path-case@1.1.2 </tspan>
<tspan x="10" y="362">    │ ├── sentence-case@1.1.3 </tspan>
<tspan x="10" y="378">    │ ├── snake-case@1.1.2 </tspan>
<tspan x="10" y="394">    │ ├── swap-case@1.1.2 </tspan>
<tspan x="10" y="410">    │ ├── title-case@1.1.2 </tspan>
<tspan x="10" y="426">    │ ├── upper-case@1.1.3 </tspan>
<tspan x="10" y="442">    │ └── upper-case-first@1.1.2 </tspan>
<tspan x="10" y="458">    ├─┬ clean-css@3.4.25 </tspan>
<tspan x="10" y="474">    │ ├─┬ commander@2.8.1 </tspan>
<tspan x="10" y="490">    │ │ └── graceful-readlink@1.0.1 </tspan>
<tspan x="10" y="506">    │ └─┬ source-map@0.4.4 </tspan>
<tspan x="10" y="522">    │   └── amdefine@1.0.1 </tspan>
<tspan x="10" y="538">    ├─┬ cli@0.11.3 </tspan>
<tspan x="10" y="554">    │ ├── exit@0.1.2 </tspan>
<tspan x="10" y="570">    │ └─┬ glob@7.1.1 </tspan>
<tspan x="10" y="586">    │   ├── fs.realpath@1.0.0 </tspan>
<tspan x="10" y="602">    │   ├─┬ inflight@1.0.6 </tspan>
<tspan x="10" y="618">    │   │ └── wrappy@1.0.2 </tspan>
<tspan x="10" y="634">    │   ├─┬ minimatch@3.0.3 </tspan>
<tspan x="10" y="650">    │   │ └─┬ brace-expansion@1.1.7 </tspan>
<tspan x="10" y="666">    │   │   ├── balanced-match@0.4.2 </tspan>
<tspan x="10" y="682">    │   │   └── concat-map@0.0.1 </tspan>
<tspan x="10" y="698">    │   ├── once@1.4.0 </tspan>
<tspan x="10" y="714">    │   └── path-is-absolute@1.0.1 </tspan>
<tspan x="10" y="730">    ├─┬ concat-stream@1.5.2 </tspan>
<tspan x="10" y="746">    │ ├── inherits@2.0.3 </tspan>
<tspan x="10" y="762">    │ ├─┬ readable-stream@2.0.6 </tspan>
<tspan x="10" y="778">    │ │ ├── core-util-is@1.0.2 </tspan>
<tspan x="10" y="794">    │ │ ├── isarray@1.0.0 </tspan>
<tspan x="10" y="810">    │ │ ├── process-nextick-args@1.0.7 </tspan>
<tspan x="10" y="826">    │ │ ├── string_decoder@0.10.31 </tspan>
<tspan x="10" y="842">    │ │ └── util-deprecate@1.0.2 </tspan>
<tspan x="10" y="858">    │ └── typedarray@0.0.6 </tspan>
<tspan x="10" y="874">    ├── relateurl@0.2.7 </tspan>
<tspan x="10" y="890">    └─┬ uglify-js@2.6.4 </tspan>
<tspan x="10" y="906">      ├── async@0.2.10 </tspan>
<tspan x="10" y="922">      ├── source-map@0.5.6 </tspan>
<tspan x="10" y="938">      ├── uglify-to-browserify@1.0.2 </tspan>
<tspan x="10" y="954">      └─┬ yargs@3.10.0 </tspan>
<tspan x="10" y="970">        ├── camelcase@1.2.1 </tspan>
<tspan x="10" y="986">        ├─┬ cliui@2.1.0 </tspan>
<tspan x="10" y="1002">        │ ├─┬ center-align@0.1.3 </tspan>
<tspan x="10" y="1018">        │ │ ├─┬ align-text@0.1.4 </tspan>
<tspan x="10" y="1034">        │ │ │ ├─┬ kind-of@3.1.0 </tspan>
<tspan x="10" y="1050">        │ │ │ │ └── is-buffer@1.1.5 </tspan>
<tspan x="10" y="1066">        │ │ │ ├── longest@1.0.1 </tspan>
<tspan x="10" y="1082">        │ │ │ └── repeat-string@1.6.1 </tspan>
<tspan x="10" y="1098">        │ │ └── lazy-cache@1.0.4 </tspan>
<tspan x="10" y="1114">        │ ├── right-align@0.1.3 </tspan>
<tspan x="10" y="1130">        │ └── wordwrap@0.0.2 </tspan>
<tspan x="10" y="1146">        ├── decamelize@1.2.0 </tspan>
<tspan x="10" y="1162">        └── window-size@0.1.0</tspan>
</text>
</svg>
